<svg fill="#000000"
     height="200px"
     width="200px"
     version="1.1"
     id="Layer_1"
     xmlns="http://www.w3.org/2000/svg"
     xmlns:xlink="http://www.w3.org/1999/xlink"
     viewBox="0 0 511.999 511.999"
     xml:space="preserve">
    <g id="SVGRepo_bgCarrier"
       stroke-width="0" />
    <g id="SVGRepo_tracerCarrier"
       stroke-linecap="round"
       stroke-linejoin="round" />
    <g id="SVGRepo_iconCarrier">
        <g>
            <g>
                <path d="M348.891,116.324l11.081-11.081l9.291,9.298c1.478,1.479,3.483,2.311,5.577,2.311c2.078,0,4.108-0.841,5.578-2.31 L398.259,96.7c3.08-3.08,3.08-8.073,0-11.151L314.988,2.277c-3.037-3.036-8.115-3.036-11.152,0L285.994,20.12 c-3.036,3.037-3.036,8.117,0.002,11.153l9.298,9.29l-80.616,80.616c-3.036,3.036-3.036,8.115,0,11.151l53.527,53.527 c3.036,3.036,8.113,3.039,11.15,0.001l21.79-21.781c29.865,3.84,58.047,17.518,79.708,38.774 c3.249,3.188,8.674,2.906,11.583-0.587c2.594-3.113,2.355-7.831-0.537-10.67c-21.267-20.869-48.191-35.178-77.075-41.198 l21.584-21.591c75.768,23.227,128.296,93.888,128.296,173.437c0,60.751-29.852,116.522-80.169,150.422 c-6.752-6.444-14.08-12.187-21.892-17.217c20.538-12.259,38.04-29.107,51.11-49.366c16.138-25.016,24.667-54.007,24.667-83.84 c0-29.516-8.363-58.249-24.185-83.09c-2.341-3.674-7.214-4.753-10.887-2.414c-3.673,2.339-4.753,7.214-2.415,10.887 c14.208,22.305,21.717,48.108,21.717,74.618c0,52.137-29.789,100.445-76.194,124.147c-19.777-9.458-40.989-14.255-63.117-14.255 c-22.128,0-43.34,4.797-63.117,14.255c-44.055-22.502-73.113-67.183-75.945-116.262h113.828c4.356,0,7.885-3.531,7.885-7.886 v-33.645c0-4.355-3.53-7.885-7.885-7.885H39.412c-4.356,0-7.886,3.531-7.886,7.885v33.645c0,4.355,3.53,7.886,7.886,7.886h46.953 c0.873,22.179,5.418,43.812,13.567,64.412c1.6,4.05,6.184,6.032,10.232,4.432c4.05-1.602,6.034-6.183,4.432-10.233 c-7.416-18.745-11.596-38.426-12.459-58.609h26.316c1.368,27.038,9.756,53.148,24.467,75.954 c13.069,20.259,30.571,37.106,51.108,49.365c-7.812,5.027-15.139,10.765-21.891,17.201 c-21.801-14.728-40.403-34.223-54.035-56.714c-2.257-3.725-7.106-4.913-10.832-2.657c-3.724,2.257-4.913,7.106-2.656,10.831 c14.368,23.707,33.827,44.343,56.604,60.164c-2.675,3.171-5.237,6.444-7.632,9.818c-0.934,1.314-1.441,2.883-1.457,4.495 l-0.231,25.454c-0.038,4.321,3.563,7.957,7.885,7.957h227.103c4.304,0,7.9-3.606,7.885-7.912l-0.084-25.234 c-0.005-1.619-0.508-3.196-1.441-4.519c-2.434-3.451-5.054-6.804-7.8-10.056c24.388-16.935,44.854-39.272,59.502-65.102 c16.699-29.445,25.525-62.964,25.525-96.934C480.475,218.56,426.993,143.924,348.891,116.324z M309.411,19.005l72.12,72.12 l-6.688,6.688l-72.12-72.119L309.411,19.005z M273.781,169.133l-42.377-42.377l75.043-75.042l42.374,42.375L273.781,169.133z M47.297,294.36v-17.874h202.921v17.874H47.297z M177.743,496.228l0.136-14.982c3.376-4.573,7.059-8.95,10.972-13.036 c0.002-0.002,0.005-0.004,0.007-0.007c10.16-10.581,21.914-19.325,34.935-25.989c0.002-0.001,0.004-0.002,0.006-0.003 c18.551-9.49,38.582-14.303,59.538-14.303c20.955,0,40.987,4.812,59.538,14.303c0.002,0.001,0.004,0.002,0.006,0.003 c13.011,6.659,24.758,15.403,34.917,25.992c0.002,0.002,0.004,0.005,0.006,0.007c3.993,4.158,7.727,8.596,11.122,13.22 l0.049,14.794H177.743z" />
            </g>
        </g>
        <g>
            <g>
                <path d="M247.589,235.481H50.977c-4.356,0-7.886,3.531-7.886,7.885s3.53,7.885,7.886,7.885h196.612 c4.356,0,7.885-3.531,7.885-7.885S251.945,235.481,247.589,235.481z" />
            </g>
        </g>
        <g>
            <g>
                <path d="M369.575,473.324c-2.063-2.077-4.228-4.103-6.438-6.028c0.519,0.451,0.856,0.744-0.023-0.021 c-1.957-1.702-0.799-0.695-0.009-0.007c-3.286-2.849-8.26-2.504-11.116,0.779c-2.86,3.286-2.514,8.266,0.771,11.125 c1.931,1.68,3.824,3.452,5.625,5.265c3.205,3.227,8.633,3.02,11.59-0.437C372.608,480.921,372.432,476.201,369.575,473.324z" />
            </g>
        </g>
        <g>
            <g>
                <path d="M345.349,454.437c-18.805-11.16-40.248-17.06-62.011-17.065c-0.001,0-0.001,0-0.002,0c-4.355,0-7.884,3.53-7.885,7.883 c-0.001,4.356,3.529,7.887,7.883,7.888c18.934,0.004,37.595,5.141,53.966,14.856c1.262,0.749,2.648,1.105,4.016,1.105 c2.693,0,5.316-1.379,6.789-3.862C350.328,461.497,349.095,456.659,345.349,454.437z" />
            </g>
        </g>
    </g>
</svg>